<?xml version="1.0" encoding="utf-8"?>
<!-- Generator: Adobe Illustrator 27.0.0, SVG Export Plug-In . SVG Version: 6.00 Build 0)  -->
<svg version="1.1" id="Layer_1" xmlns="http://www.w3.org/2000/svg" xmlns:xlink="http://www.w3.org/1999/xlink" x="0px" y="0px"
	 viewBox="0 0 15.9 4" style="enable-background:new 0 0 15.9 4;" xml:space="preserve">
<style type="text/css">
	.st0{fill:#FF8C04;}
	.st1{fill:#FFBD1E;}
	.st2{fill:#FFFFFF;}
</style>
<g>
	<polygon class="st0" points="0,2 0.9,3.6 0.9,3.6 1.2,4 3.5,4 3.7,3.6 3.7,3.6 3.8,3.6 4.7,2 3.5,0 1.2,0 	"/>
	<polygon class="st1" points="0.5,2 1.7,4 3.5,4 4.7,2 3.5,0 1.7,0 	"/>
	<path class="st2" d="M4,1.4c0,0-0.1,0-0.1,0.1c0,0-0.1,0-0.1,0.1c0,0-0.1,0-0.1,0c0,0,0-0.1-0.1-0.1c0-0.1-0.1-0.2-0.1-0.2
		C3.5,1,3.4,0.9,3.4,0.8c0,0-0.1-0.1-0.1-0.1c0-0.1-0.1-0.1-0.1-0.1c-0.2,0-0.3,0-0.5,0c-0.1,0-0.2,0-0.2,0c-0.1,0-0.1,0-0.2,0
		c0,0-0.1,0-0.1,0c0,0,0-0.1,0-0.1c0,0,0-0.1,0-0.1c0,0,0-0.1,0-0.1c0,0,0.1,0,0.1,0c0,0,0.1,0,0.1,0c0.1,0,0.2,0,0.3,0
		c0.2,0,0.4,0,0.6,0c0,0,0.1,0,0.1,0c0,0,0,0.1,0.1,0.1c0.1,0.2,0.2,0.3,0.3,0.5C3.8,0.9,3.9,1,3.9,1.1c0,0,0.1,0.1,0.1,0.1
		C4,1.3,4.1,1.3,4,1.4z"/>
	<polygon class="st0" points="0.9,3.6 0.9,3.6 1.2,4 3.5,4 3.7,3.6 3.7,3.6 3.8,3.6 	"/>
</g>
<g>
	<polygon class="st0" points="5.6,2 6.5,3.6 6.5,3.6 6.8,4 9.1,4 9.4,3.6 9.4,3.6 9.4,3.6 10.3,2 9.1,0 6.8,0 	"/>
	<polygon class="st1" points="6.1,2 7.3,4 9.1,4 10.3,2 9.1,0 7.3,0 	"/>
	<path class="st2" d="M9.6,1.4c0,0-0.1,0-0.1,0.1c0,0-0.1,0-0.1,0.1c0,0-0.1,0-0.1,0c0,0,0-0.1-0.1-0.1c0-0.1-0.1-0.2-0.1-0.2
		C9.1,1,9,0.9,9,0.8c0,0-0.1-0.1-0.1-0.1c0-0.1-0.1-0.1-0.1-0.1c-0.2,0-0.3,0-0.5,0c-0.1,0-0.2,0-0.2,0c-0.1,0-0.1,0-0.2,0
		c0,0-0.1,0-0.1,0c0,0,0-0.1,0-0.1c0,0,0-0.1,0-0.1c0,0,0-0.1,0-0.1c0,0,0.1,0,0.1,0c0,0,0.1,0,0.1,0c0.1,0,0.2,0,0.3,0
		c0.2,0,0.4,0,0.6,0c0,0,0.1,0,0.1,0c0,0,0,0.1,0.1,0.1c0.1,0.2,0.2,0.3,0.3,0.5C9.4,0.9,9.5,1,9.5,1.1c0,0,0.1,0.1,0.1,0.1
		C9.6,1.3,9.7,1.3,9.6,1.4z"/>
	<polygon class="st0" points="6.5,3.6 6.5,3.6 6.8,4 9.1,4 9.4,3.6 9.4,3.6 9.4,3.6 	"/>
</g>
<g>
	<polygon class="st0" points="15.9,2 15,3.6 15,3.6 14.7,4 12.4,4 12.1,3.6 12.1,3.6 12.1,3.6 11.2,2 12.4,0 14.7,0 	"/>
	<polygon class="st1" points="15.4,2 14.2,4 12.4,4 11.2,2 12.4,0 14.2,0 	"/>
	<path class="st2" d="M11.9,1.4c0,0,0.1,0,0.1,0.1c0,0,0.1,0,0.1,0.1c0,0,0.1,0,0.1,0c0,0,0-0.1,0.1-0.1c0-0.1,0.1-0.2,0.1-0.2
		c0.1-0.1,0.1-0.2,0.2-0.3c0,0,0.1-0.1,0.1-0.1c0-0.1,0.1-0.1,0.1-0.1c0.2,0,0.3,0,0.5,0c0.1,0,0.2,0,0.2,0c0.1,0,0.1,0,0.2,0
		c0,0,0.1,0,0.1,0c0,0,0-0.1,0-0.1c0,0,0-0.1,0-0.1c0,0,0-0.1,0-0.1c0,0-0.1,0-0.1,0c0,0-0.1,0-0.1,0c-0.1,0-0.2,0-0.3,0
		c-0.2,0-0.4,0-0.6,0c0,0-0.1,0-0.1,0c0,0,0,0.1-0.1,0.1c-0.1,0.2-0.2,0.3-0.3,0.5C12.1,0.9,12,1,12,1.1c0,0-0.1,0.1-0.1,0.1
		C11.9,1.3,11.8,1.3,11.9,1.4z"/>
	<polygon class="st0" points="15,3.6 15,3.6 14.7,4 12.4,4 12.1,3.6 12.1,3.6 12.1,3.6 	"/>
</g>
</svg>
